<svg width="43" height="48" viewBox="0 0 43 48" fill="none" xmlns="http://www.w3.org/2000/svg">
<g clip-path="url(#clip0_406480_4123)">
<path fill-rule="evenodd" clip-rule="evenodd" d="M10.889 5.58656C10.9862 5.41721 11.2017 5.3591 11.3703 5.45675L31.9875 17.3974C32.1561 17.4951 32.214 17.7116 32.1168 17.8809C32.0195 18.0502 31.804 18.1084 31.6354 18.0107L11.0182 6.07C10.8496 5.97235 10.7917 5.7559 10.889 5.58656Z" fill="black"/>
<path fill-rule="evenodd" clip-rule="evenodd" d="M18.9738 0.666143C19.7428 0.222265 20.615 -0.0114136 21.5028 -0.0114136C22.3907 -0.0114136 23.2629 0.222265 24.0318 0.666143C24.0321 0.666284 24.0323 0.666425 24.0326 0.666566L40.4759 10.0647C41.2443 10.5084 41.8825 11.1464 42.3265 11.9147C42.7705 12.683 43.0048 13.5546 43.0057 14.442V33.2389C43.0048 34.1264 42.7705 34.9979 42.3265 35.7662C41.8825 36.5346 41.2443 37.1726 40.4759 37.6163L40.4745 37.6171L24.0326 47.0144C24.0324 47.0145 24.0323 47.0145 24.0322 47.0146C23.2631 47.4586 22.3908 47.6924 21.5028 47.6924C20.6149 47.6924 19.7425 47.4586 18.9735 47.0146C18.9734 47.0145 18.9732 47.0145 18.9731 47.0144L2.53114 37.6171L2.52975 37.6163C1.76137 37.1726 1.12316 36.5346 0.679139 35.7662C0.235122 34.9979 0.000910049 34.1264 0 33.2389V14.442C0.000910049 13.5546 0.235121 12.683 0.679139 11.9147C1.12316 11.1464 1.76137 10.5084 2.52975 10.0647L2.53114 10.0639L18.9731 0.666566C18.9733 0.666425 18.9736 0.666284 18.9738 0.666143ZM21.5028 0.711517C20.7416 0.711517 19.9937 0.91194 19.3345 1.29264L19.3331 1.29344L2.89114 10.6907C2.89089 10.6909 2.89065 10.691 2.8904 10.6912C2.23212 11.0715 1.68535 11.6182 1.3049 12.2765C0.924348 12.935 0.723597 13.682 0.722784 14.4426V33.2384C0.723597 33.999 0.924347 34.746 1.3049 35.4045C1.68533 36.0627 2.23206 36.6094 2.89029 36.9897C2.89057 36.9899 2.89086 36.99 2.89114 36.9902L19.3345 46.3883C19.9937 46.769 20.7416 46.9694 21.5028 46.9694C22.2641 46.9694 23.0119 46.769 23.6712 46.3883L23.6726 46.3875L40.1145 36.9902C40.1148 36.99 40.1151 36.9899 40.1154 36.9897C40.7736 36.6094 41.3203 36.0627 41.7008 35.4045C42.0813 34.7459 42.2821 33.9988 42.2829 33.2382V14.4427C42.2821 13.6821 42.0813 12.935 41.7008 12.2765C41.3203 11.6182 40.7735 11.0715 40.1153 10.6912C40.115 10.691 40.1148 10.6909 40.1145 10.6907L23.6726 1.29344L23.6712 1.29264C23.0119 0.91194 22.2641 0.711517 21.5028 0.711517Z" fill="black"/>
<path fill-rule="evenodd" clip-rule="evenodd" d="M0.770657 12.0905C0.869308 11.9219 1.08753 11.8642 1.25807 11.9618L21.322 23.4412L41.386 11.9618C41.5565 11.8642 41.7747 11.9219 41.8734 12.0905C41.972 12.2592 41.9137 12.475 41.7432 12.5726L21.5006 24.1542C21.3901 24.2174 21.2539 24.2174 21.1434 24.1542L0.900822 12.5726C0.730283 12.475 0.672007 12.2592 0.770657 12.0905Z" fill="black"/>
<path fill-rule="evenodd" clip-rule="evenodd" d="M21.3223 23.479C21.5219 23.479 21.6837 23.6372 21.6837 23.8323V46.9776C21.6837 47.1727 21.5219 47.3309 21.3223 47.3309C21.1227 47.3309 20.9609 47.1727 20.9609 46.9776V23.8323C20.9609 23.6372 21.1227 23.479 21.3223 23.479Z" fill="black"/>
</g>
<defs>
<clipPath id="clip0_406480_4123">
<rect width="43" height="48" fill="white"/>
</clipPath>
</defs>
</svg>
